<svg width="24" height="32" viewBox="0 0 24 32" fill="none" xmlns="http://www.w3.org/2000/svg">
<path opacity="0.4" d="M2.00024 11.0785C2.05024 13.4165 2.19024 17.4155 2.21024 17.8565C2.28124 18.7995 2.64224 19.7525 3.20424 20.4245C3.98624 21.3675 4.94924 21.7885 6.29224 21.7885C8.14824 21.7985 10.1942 21.7985 12.1812 21.7985C14.1762 21.7985 16.1122 21.7985 17.7472 21.7885C19.0712 21.7885 20.0642 21.3565 20.8362 20.4245C21.3982 19.7525 21.7592 18.7895 21.8102 17.8565C21.8302 17.4855 21.9302 13.1445 21.9902 11.0785H2.00024Z" fill="#200E32"/>
<path d="M11.2455 15.3842V16.6782C11.2455 17.0922 11.5815 17.4282 11.9955 17.4282C12.4095 17.4282 12.7455 17.0922 12.7455 16.6782V15.3842C12.7455 14.9702 12.4095 14.6342 11.9955 14.6342C11.5815 14.6342 11.2455 14.9702 11.2455 15.3842" fill="#200E32"/>
<path fill-rule="evenodd" clip-rule="evenodd" d="M10.2114 14.5564C10.1114 14.9194 9.76236 15.1514 9.38437 15.1014C6.83337 14.7454 4.39537 13.8404 2.33737 12.4814C2.12637 12.3434 2.00037 12.1074 2.00037 11.8554V8.3894C2.00037 6.2894 3.71237 4.5814 5.81737 4.5814H7.78437C7.97237 3.1294 9.20237 2.0004 10.7044 2.0004H13.2864C14.7874 2.0004 16.0184 3.1294 16.2064 4.5814H18.1834C20.2824 4.5814 21.9904 6.2894 21.9904 8.3894V11.8554C21.9904 12.1074 21.8634 12.3424 21.6544 12.4814C19.5924 13.8464 17.1444 14.7554 14.5764 15.1104C14.5414 15.1154 14.5074 15.1174 14.4734 15.1174C14.1344 15.1174 13.8314 14.8884 13.7464 14.5524C13.5444 13.7564 12.8214 13.1994 11.9904 13.1994C11.1484 13.1994 10.4334 13.7444 10.2114 14.5564ZM13.2864 3.5004H10.7044C10.0314 3.5004 9.46937 3.9604 9.30137 4.5814H14.6884C14.5204 3.9604 13.9584 3.5004 13.2864 3.5004Z" fill="#200E32"/>
<circle cx="12" cy="30" r="2" fill="#246BFD"/>
</svg>
