<svg width="24" height="24" viewBox="0 0 24 24" fill="none" xmlns="http://www.w3.org/2000/svg">
    <circle cx="12" cy="12" r="10" fill="#343A40" />
    <path fill-rule="evenodd" clip-rule="evenodd"
        d="M9.7236 11.9998C9.7236 13.2442 10.7423 14.2567 12 14.2567C13.2521 14.2567 14.2708 13.2442 14.2708 11.9998C14.2708 10.7497 13.2521 9.73714 12 9.73714C10.7423 9.73714 9.7236 10.7497 9.7236 11.9998ZM15.3464 8.52654C16.3423 9.29584 17.1903 10.4215 17.7992 11.83C17.8447 11.9375 17.8447 12.0619 17.7992 12.1637C16.5813 14.9807 14.413 16.6663 12 16.6663H11.9943C9.58701 16.6663 7.41872 14.9807 6.20083 12.1637C6.1553 12.0619 6.1553 11.9375 6.20083 11.83C7.41872 9.01301 9.58701 7.33301 11.9943 7.33301H12C13.2065 7.33301 14.3504 7.75159 15.3464 8.52654ZM12.0007 13.407C12.7804 13.407 13.4178 12.7735 13.4178 11.9985C13.4178 11.2179 12.7804 10.5844 12.0007 10.5844C11.9324 10.5844 11.8641 10.5901 11.8015 10.6014C11.7788 11.2236 11.2666 11.7214 10.6349 11.7214H10.6064C10.5893 11.8119 10.5779 11.9024 10.5779 11.9985C10.5779 12.7735 11.2153 13.407 12.0007 13.407Z"
        fill="#74788D" />
</svg>
