<svg width="24" height="24" viewBox="0 0 24 24" fill="none" xmlns="http://www.w3.org/2000/svg">
    <circle cx="12" cy="12" r="10" fill="#343A40" />
    <path fill-rule="evenodd" clip-rule="evenodd"
        d="M10.7186 13.8978C11.0829 14.1448 11.5268 14.2941 11.9993 14.2941C13.2514 14.2941 14.2703 13.2661 14.2703 12.0026C14.2703 11.526 14.1223 11.078 13.8775 10.7105L13.2571 11.3364C13.3596 11.5317 13.4165 11.7614 13.4165 12.0026C13.4165 12.7894 12.779 13.4326 11.9993 13.4326C11.7602 13.4326 11.5325 13.3752 11.339 13.2718L10.7186 13.8978ZM15.7502 8.82088C16.5755 9.57895 17.2756 10.6012 17.7992 11.8302C17.8447 11.9393 17.8447 12.0657 17.7992 12.169C16.5812 15.029 14.4126 16.7404 11.9993 16.7404H11.9936C10.895 16.7404 9.84206 16.3786 8.91429 15.7182L7.81008 16.8323C7.72471 16.9185 7.61656 16.9587 7.50842 16.9587C7.40027 16.9587 7.28644 16.9185 7.20675 16.8323C7.06446 16.6887 7.04169 16.459 7.15552 16.2925L7.1726 16.2695L15.5908 7.77566C15.6022 7.76417 15.6135 7.75268 15.6192 7.7412L15.6192 7.74119C15.6306 7.72971 15.642 7.71822 15.6477 7.70674L16.1827 7.1669C16.3535 7.00036 16.621 7.00036 16.7861 7.1669C16.9568 7.33345 16.9568 7.60911 16.7861 7.77566L15.7502 8.82088ZM9.72407 12.0046C9.72407 12.1539 9.74114 12.3032 9.76391 12.4411L7.65794 14.566C7.08876 13.8998 6.59357 13.0958 6.20084 12.1711C6.1553 12.0678 6.1553 11.9414 6.20084 11.8323C7.41888 8.97231 9.58746 7.26664 11.9951 7.26664H12.0008C12.8147 7.26664 13.6059 7.4619 14.3344 7.82945L12.4334 9.74761C12.2968 9.72463 12.1488 9.7074 12.0008 9.7074C10.7429 9.7074 9.72407 10.7354 9.72407 12.0046Z"
        fill="#74788D" />
</svg>
