<svg width="109" height="64" viewBox="0 0 109 64" fill="none" xmlns="http://www.w3.org/2000/svg">
<g filter="url(#filter0_d_0_2468)">
<rect x="16.5" y="8" width="76" height="32" rx="12" fill="#200E32"/>
<path d="M31.4944 19.2V20.432H27.2944V29H25.9924V19.2H31.4944ZM36.7262 27.838H37.6922V30.876H36.4882V29H31.2382V30.876H30.0342V27.838H30.8882C31.3362 27.222 31.5602 26.3587 31.5602 25.248V22H36.7262V27.838ZM32.2742 27.838H35.5222V23.134H32.7642V25.248C32.7642 26.2933 32.6009 27.1567 32.2742 27.838ZM39.5856 26.06C39.707 26.6853 39.9916 27.1707 40.4396 27.516C40.897 27.8613 41.457 28.034 42.1196 28.034C43.0436 28.034 43.7156 27.6933 44.1356 27.012L45.1716 27.6C44.4903 28.6547 43.4636 29.182 42.0916 29.182C40.981 29.182 40.0756 28.8367 39.3756 28.146C38.685 27.446 38.3396 26.564 38.3396 25.5C38.3396 24.4453 38.6803 23.568 39.3616 22.868C40.043 22.168 40.925 21.818 42.0076 21.818C43.0343 21.818 43.8696 22.182 44.5136 22.91C45.167 23.6287 45.4936 24.4967 45.4936 25.514C45.4936 25.6913 45.4796 25.8733 45.4516 26.06H39.5856ZM42.0076 22.966C41.3543 22.966 40.813 23.1527 40.3836 23.526C39.9543 23.89 39.6883 24.38 39.5856 24.996H44.2616C44.159 24.3333 43.8976 23.8293 43.4776 23.484C43.0576 23.1387 42.5676 22.966 42.0076 22.966ZM55.6297 22V29H54.4257V26.48H53.4037L51.4437 29H49.9597L52.0037 26.41C51.4811 26.2793 51.0564 26.018 50.7297 25.626C50.4031 25.234 50.2397 24.7767 50.2397 24.254C50.2397 23.61 50.4684 23.0733 50.9257 22.644C51.3831 22.2147 51.9571 22 52.6477 22H55.6297ZM52.6897 25.388H54.4257V23.134H52.6897C52.3444 23.134 52.0504 23.2367 51.8077 23.442C51.5651 23.6473 51.4437 23.9227 51.4437 24.268C51.4437 24.604 51.5651 24.8747 51.8077 25.08C52.0504 25.2853 52.3444 25.388 52.6897 25.388ZM59.3807 26.13C59.3807 25.7193 59.4694 25.3367 59.6467 24.982C59.8241 24.6273 60.0387 24.324 60.2907 24.072C60.5427 23.82 60.7947 23.582 61.0467 23.358C61.2987 23.1247 61.5134 22.8727 61.6907 22.602C61.8681 22.322 61.9567 22.028 61.9567 21.72C61.9567 21.2533 61.7934 20.8987 61.4667 20.656C61.1494 20.404 60.7341 20.278 60.2207 20.278C59.1941 20.278 58.5361 20.7307 58.2467 21.636L57.1407 21.02C57.3741 20.3667 57.7707 19.872 58.3307 19.536C58.8907 19.1907 59.5254 19.018 60.2347 19.018C61.0654 19.018 61.7747 19.2513 62.3627 19.718C62.9601 20.1847 63.2587 20.8333 63.2587 21.664C63.2587 22.056 63.1701 22.4247 62.9927 22.77C62.8154 23.1153 62.6007 23.414 62.3487 23.666C62.0967 23.918 61.8447 24.1653 61.5927 24.408C61.3407 24.6413 61.1261 24.9073 60.9487 25.206C60.7714 25.4953 60.6827 25.8033 60.6827 26.13H59.3807ZM60.0247 29.154C59.7727 29.154 59.5581 29.0653 59.3807 28.888C59.2034 28.7107 59.1147 28.496 59.1147 28.244C59.1147 27.992 59.2034 27.7773 59.3807 27.6C59.5581 27.4227 59.7727 27.334 60.0247 27.334C60.2861 27.334 60.5007 27.4227 60.6687 27.6C60.8461 27.7773 60.9347 27.992 60.9347 28.244C60.9347 28.496 60.8461 28.7107 60.6687 28.888C60.5007 29.0653 60.2861 29.154 60.0247 29.154Z" fill="white"/>
<path d="M76.5001 21.3333C75.0267 21.3333 73.8334 22.5267 73.8334 24C73.8334 25.4733 75.0267 26.6667 76.5001 26.6667C77.9734 26.6667 79.1667 25.4733 79.1667 24C79.1667 22.5267 77.9734 21.3333 76.5001 21.3333ZM82.4601 23.3333C82.1534 20.5533 79.9467 18.3467 77.1667 18.04V17.3333C77.1667 16.9651 76.8683 16.6667 76.5001 16.6667C76.1319 16.6667 75.8334 16.9651 75.8334 17.3333V18.04C73.0534 18.3467 70.8467 20.5533 70.5401 23.3333H69.8334C69.4652 23.3333 69.1667 23.6318 69.1667 24C69.1667 24.3682 69.4652 24.6667 69.8334 24.6667H70.5401C70.8467 27.4467 73.0534 29.6533 75.8334 29.96V30.6667C75.8334 31.0349 76.1319 31.3333 76.5001 31.3333C76.8683 31.3333 77.1667 31.0349 77.1667 30.6667V29.96C79.9467 29.6533 82.1534 27.4467 82.4601 24.6667H83.1667C83.5349 24.6667 83.8334 24.3682 83.8334 24C83.8334 23.6318 83.5349 23.3333 83.1667 23.3333H82.4601ZM76.5001 28.6667C73.9234 28.6667 71.8334 26.5767 71.8334 24C71.8334 21.4233 73.9234 19.3334 76.5001 19.3334C79.0767 19.3334 81.1667 21.4233 81.1667 24C81.1667 26.5767 79.0767 28.6667 76.5001 28.6667Z" fill="white"/>
</g>
<defs>
<filter id="filter0_d_0_2468" x="0.5" y="0" width="108" height="64" filterUnits="userSpaceOnUse" color-interpolation-filters="sRGB">
<feFlood flood-opacity="0" result="BackgroundImageFix"/>
<feColorMatrix in="SourceAlpha" type="matrix" values="0 0 0 0 0 0 0 0 0 0 0 0 0 0 0 0 0 0 127 0" result="hardAlpha"/>
<feOffset dy="8"/>
<feGaussianBlur stdDeviation="8"/>
<feColorMatrix type="matrix" values="0 0 0 0 0.6 0 0 0 0 0.611765 0 0 0 0 0.678431 0 0 0 0.5 0"/>
<feBlend mode="normal" in2="BackgroundImageFix" result="effect1_dropShadow_0_2468"/>
<feBlend mode="normal" in="SourceGraphic" in2="effect1_dropShadow_0_2468" result="shape"/>
</filter>
</defs>
</svg>
